<?xml version="1.0" encoding="UTF-8"?>
<svg version="1.1" xmlns="http://www.w3.org/2000/svg" width="64" height="64">
<path d="M0 0 C2.71484375 -0.36328125 2.71484375 -0.36328125 5.9375 -0.3125 C7.52884766 -0.30669922 7.52884766 -0.30669922 9.15234375 -0.30078125 C12 0 12 0 15 2 C16.45329428 7.81317712 15.53954035 11.5910178 13.125 16.9375 C12.78145983 19.31900277 12.78145983 19.31900277 14.9375 22.125 C17.72271037 26.73130946 17.85387562 30.74266661 17 36 C15.56483496 40.77229621 13.86529205 45.37674041 12 50 C12.66 50 13.32 50 14 50 C14 51.65 14 53.3 14 55 C14.66 55 15.32 55 16 55 C17.32735064 60.4300708 17.32735064 60.4300708 16.01953125 62.70703125 C12.83752939 64.74425101 9.6164232 64.17100617 6 63.875 C4.91332031 63.82085937 4.91332031 63.82085937 3.8046875 63.765625 C-0.32809915 63.47587243 -2.23812788 63.02450413 -5 60 C-7.14787142 60.07438113 -7.14787142 60.07438113 -9.375 60.8125 C-12.69710071 61.69586446 -15.53421893 62.22359878 -19 62 C-19.26554687 61.43410156 -19.53109375 60.86820313 -19.8046875 60.28515625 C-20.15789063 59.55167969 -20.51109375 58.81820312 -20.875 58.0625 C-21.22304688 57.33160156 -21.57109375 56.60070313 -21.9296875 55.84765625 C-22.8684977 53.83667541 -22.8684977 53.83667541 -25 53 C-25.37795276 47.58267717 -25.37795276 47.58267717 -23.5 44.6875 C-21.60165192 41.28629303 -21.83602389 38.89974367 -22.08984375 35.0859375 C-22 33 -22 33 -20 30 C-19.34 30 -18.68 30 -18 30 C-16.75732962 27.81571431 -16.75732962 27.81571431 -16 25 C-16.33 24.01 -16.66 23.02 -17 22 C-18 19 -18 19 -17.5 16.375 C-15.42746075 13.09347952 -13.48173158 11.70801927 -10 10 C-6.125 10.25 -6.125 10.25 -3 11 C-2.01 8.69 -1.02 6.38 0 4 C-0.66 3.67 -1.32 3.34 -2 3 C-1.34 2.01 -0.68 1.02 0 0 Z " fill="#586A5E" transform="translate(36,0)"/>
<path d="M0 0 C2.71484375 -0.36328125 2.71484375 -0.36328125 5.9375 -0.3125 C7.52884766 -0.30669922 7.52884766 -0.30669922 9.15234375 -0.30078125 C12 0 12 0 15 2 C16.45329428 7.81317712 15.53954035 11.5910178 13.125 16.9375 C12.94554341 19.89853371 14.55194681 21.50598035 16.06640625 23.9375 C18.24490328 28.75024659 17.56873458 34.22270442 16 39.125 C15.67 39.74375 15.34 40.3625 15 41 C14.67 41 14.34 41 14 41 C13.957279 39.33388095 13.95936168 37.66617115 14 36 C14.33 35.67 14.66 35.34 15 35 C15.37052339 29.82264323 15.37052339 29.82264323 14 25 C12.02111039 24.27306096 10.02045442 23.60183749 8 23 C7.67 23.99 7.34 24.98 7 26 C5.0625 28.1875 5.0625 28.1875 3 30 C2.34 30 1.68 30 1 30 C1.33 31.65 1.66 33.3 2 35 C0.34478822 35.38621608 -1.32721001 35.6988978 -3 36 C-3.78632812 36.14179687 -4.57265625 36.28359375 -5.3828125 36.4296875 C-12.25118167 37.43431463 -12.25118167 37.43431463 -16.125 35.1875 C-18 33 -18 33 -18 31 C-18.66 30.67 -19.32 30.34 -20 30 C-19.34 30 -18.68 30 -18 30 C-16.75732962 27.81571431 -16.75732962 27.81571431 -16 25 C-16.33 24.01 -16.66 23.02 -17 22 C-18 19 -18 19 -17.5 16.375 C-15.42746075 13.09347952 -13.48173158 11.70801927 -10 10 C-6.125 10.25 -6.125 10.25 -3 11 C-2.01 8.69 -1.02 6.38 0 4 C-0.66 3.67 -1.32 3.34 -2 3 C-1.34 2.01 -0.68 1.02 0 0 Z " fill="#685942" transform="translate(36,0)"/>
<path d="M0 0 C2.71484375 -0.36328125 2.71484375 -0.36328125 5.9375 -0.3125 C7.52884766 -0.30669922 7.52884766 -0.30669922 9.15234375 -0.30078125 C12 -0 12 -0 15 2 C16.24690188 6.98760752 15.96093203 10.27069335 14 15 C13.01 15 12.02 15 11 15 C11 16.65 11 18.3 11 20 C8.69 21.32 6.38 22.64 4 24 C3.67 22.68 3.34 21.36 3 20 C2.67 21.32 2.34 22.64 2 24 C1.34 24 0.68 24 0 24 C0.04125 22.9275 0.0825 21.855 0.125 20.75 C0.00436885 17.13106549 -0.42960034 16.04264934 -2 13 C-2.33457898 8.90140754 -2.32536063 7.48804095 0 4 C-0.66 3.67 -1.32 3.34 -2 3 C-1.34 2.01 -0.68 1.02 0 0 Z " fill="#5E5137" transform="translate(36,0)"/>
<path d="M0 0 C0.33 0 0.66 0 1 0 C1 0.886875 1 1.77375 1 2.6875 C2.28855299 6.95583177 4.0156014 7.97512121 7.8046875 10.09375 C12.34278766 11.96712943 16.42038259 11.21459418 21 10 C20.72285156 10.4846875 20.44570313 10.969375 20.16015625 11.46875 C17.48790715 16.4138373 16.40032562 20.39544133 16 26 C14.35 25.67 12.7 25.34 11 25 C11 23.02 11 21.04 11 19 C10.01 21.475 10.01 21.475 9 24 C8.443125 23.855625 7.88625 23.71125 7.3125 23.5625 C3.4130866 22.61399404 0.04152856 22 -4 22 C-4.37795276 16.58267717 -4.37795276 16.58267717 -2.5 13.6875 C-0.5951278 10.27460398 -0.79896796 7.8204688 -0.9921875 3.98828125 C-1 2 -1 2 0 0 Z " fill="#303025" transform="translate(15,31)"/>
<path d="M0 0 C0 1.65 0 3.3 0 5 C0.66 5 1.32 5 2 5 C3.32718435 10.4293905 3.32718435 10.4293905 2.0234375 12.703125 C-1.17385435 14.75235453 -4.42373138 14.21097067 -8.0625 13.9375 C-8.79533203 13.90978516 -9.52816406 13.88207031 -10.28320312 13.85351562 C-12.41015625 13.71484375 -12.41015625 13.71484375 -16 13 C-17.37109375 11.00390625 -17.37109375 11.00390625 -18 9 C-18.66 8.67 -19.32 8.34 -20 8 C-19.360625 7.896875 -18.72125 7.79375 -18.0625 7.6875 C-17.381875 7.460625 -16.70125 7.23375 -16 7 C-15.67 6.01 -15.34 5.02 -15 4 C-11.1428347 -0.17859574 -5.36232595 0 0 0 Z " fill="#633D28" transform="translate(50,50)"/>
<path d="M0 0 C3.5 0.8125 3.5 0.8125 5.375 1.875 C7.19225045 5.0047091 7.77576403 8.20579676 7.5 11.8125 C5.5625 14.3125 5.5625 14.3125 3.5 15.8125 C3.17 12.1825 2.84 8.5525 2.5 4.8125 C2.17 5.8025 1.84 6.7925 1.5 7.8125 C0.18352881 8.51187532 -1.15022151 9.17979133 -2.5 9.8125 C-2.83 10.4725 -3.16 11.1325 -3.5 11.8125 C-1.52 11.4825 0.46 11.1525 2.5 10.8125 C2.17 11.4725 1.84 12.1325 1.5 12.8125 C0.84 12.8125 0.18 12.8125 -0.5 12.8125 C-0.5 14.1325 -0.5 15.4525 -0.5 16.8125 C-4.05780196 16.20259109 -7.1828589 15.2341319 -10.5 13.8125 C-11.3125 10.625 -11.3125 10.625 -11.5 6.8125 C-8.25595738 2.75744672 -5.36080318 -0.28718588 0 0 Z " fill="#363328" transform="translate(29.5,10.1875)"/>
<path d="M0 0 C5.75 1.625 5.75 1.625 8 5 C8.63549917 11.03724212 7.45305414 15.10236375 4.97265625 20.60546875 C3.97408421 23.06380071 3.44056496 25.38907295 3 28 C2.34 28 1.68 28 1 28 C0.67 27.01 0.34 26.02 0 25 C0.33 24.34 0.66 23.68 1 23 C-0.65 22.67 -2.3 22.34 -4 22 C-4 21.01 -4 20.02 -4 19 C-3.01 19 -2.02 19 -1 19 C-1 18.01 -1 17.02 -1 16 C-0.34 16 0.32 16 1 16 C1.33 14.68 1.66 13.36 2 12 C1.01 12 0.02 12 -1 12 C-3.1875 10 -3.1875 10 -5 8 C-3.84826645 5.53199953 -2.95216435 3.95216435 -1 2 C-0.67 1.34 -0.34 0.68 0 0 Z " fill="#6C847E" transform="translate(44,22)"/>
<path d="M0 0 C0.515625 0.495 1.03125 0.99 1.5625 1.5 C5.40593736 3.86519222 9.12061652 3.38551456 13.4375 2.5 C13.953125 2.335 14.46875 2.17 15 2 C15 2.66 15 3.32 15 4 C15.99 3.67 16.98 3.34 18 3 C18 3.66 18 4.32 18 5 C17.34 5 16.68 5 16 5 C16.33 6.65 16.66 8.3 17 10 C15.34478822 10.38621608 13.67278999 10.6988978 12 11 C11.21367188 11.14179687 10.42734375 11.28359375 9.6171875 11.4296875 C2.74881833 12.43431463 2.74881833 12.43431463 -1.125 10.1875 C-3 8 -3 8 -3 6 C-3.66 5.67 -4.32 5.34 -5 5 C-4.34 5 -3.68 5 -3 5 C-2.5359375 4.0409375 -2.5359375 4.0409375 -2.0625 3.0625 C-1 1 -1 1 0 0 Z " fill="#1E1F19" transform="translate(21,25)"/>
<path d="M0 0 C1.9375 0.75 1.9375 0.75 4 2 C4.62890625 4.078125 4.62890625 4.078125 5 6 C-3.41736448 12.63904804 -3.41736448 12.63904804 -8.5625 13.8125 C-13.47287636 12.65186559 -17.39208004 10.55981436 -21 7 C-21.5625 3.625 -21.5625 3.625 -21 1 C-20.34 1 -19.68 1 -19 1 C-18.2575 1.825 -17.515 2.65 -16.75 3.5 C-14.23432878 6.27062284 -14.23432878 6.27062284 -10.9375 6.375 C-8.52891388 6.06752092 -6.33718855 5.62325028 -4 5 C-2.68 5 -1.36 5 0 5 C0 3.35 0 1.7 0 0 Z " fill="#DEB671" transform="translate(37,30)"/>
<path d="M0 0 C1.98 0 3.96 0 6 0 C6.33 0.66 6.66 1.32 7 2 C9.02463255 2.65213292 9.02463255 2.65213292 11 3 C11 2.34 11 1.68 11 1 C12.98 0.67 14.96 0.34 17 0 C16.67 1.65 16.34 3.3 16 5 C15.01 5 14.02 5 13 5 C13 6.65 13 8.3 13 10 C10.69 11.32 8.38 12.64 6 14 C5.67 12.68 5.34 11.36 5 10 C4.67 11.32 4.34 12.64 4 14 C3.34 14 2.68 14 2 14 C2.04125 12.9275 2.0825 11.855 2.125 10.75 C2.00780624 7.23418706 1.67021593 5.92287789 0 3 C0 2.01 0 1.02 0 0 Z " fill="#C6A166" transform="translate(34,10)"/>
<path d="M0 0 C0.33 0 0.66 0 1 0 C1.061875 0.9075 1.12375 1.815 1.1875 2.75 C2.19508827 6.78035309 3.63724237 7.70348259 7 10 C9 12 9 12 9 16 C7.35 16.33 5.7 16.66 4 17 C3.67 16.34 3.34 15.68 3 15 C0.4390706 16.79857668 0.4390706 16.79857668 -2 19 C-2 19.99 -2 20.98 -2 22 C-2.66 22 -3.32 22 -4 22 C-4.37795276 16.58267717 -4.37795276 16.58267717 -2.5 13.6875 C-0.5951278 10.27460398 -0.79896796 7.8204688 -0.9921875 3.98828125 C-1 2 -1 2 0 0 Z " fill="#2F2C1F" transform="translate(15,31)"/>
<path d="M0 0 C0.66 0.33 1.32 0.66 2 1 C2.144375 1.7425 2.28875 2.485 2.4375 3.25 C2.8178684 6.05826594 2.8178684 6.05826594 4.5625 8.1875 C7.13594406 13.22249925 6.69680994 18.82246894 5 24.125 C4.67 24.74375 4.34 25.3625 4 26 C3.67 26 3.34 26 3 26 C2.957279 24.33388095 2.95936168 22.66617115 3 21 C3.33 20.67 3.66 20.34 4 20 C4.37052339 14.82264323 4.37052339 14.82264323 3 10 C1.02111039 9.27306096 -0.97954558 8.60183749 -3 8 C-3.33 8.99 -3.66 9.98 -4 11 C-8.33333333 14 -8.33333333 14 -11 14 C-11 13.01 -11 12.02 -11 11 C-10.34 11 -9.68 11 -9 11 C-8.67 9.02 -8.34 7.04 -8 5 C-6 6 -6 6 -5 7 C-3.35 6.34 -1.7 5.68 0 5 C0 3.35 0 1.7 0 0 Z " fill="#545A4D" transform="translate(47,15)"/>
<path d="M0 0 C0.33 0.99 0.66 1.98 1 3 C-1.64 3.33 -4.28 3.66 -7 4 C-4.71546567 5.14226716 -2.37491201 6.06253473 0 7 C0.33 6.34 0.66 5.68 1 5 C1 5.99 1 6.98 1 8 C0.01 8.495 0.01 8.495 -1 9 C-0.67 10.32 -0.34 11.64 0 13 C-1.65 12.67 -3.3 12.34 -5 12 C-4.67 11.01 -4.34 10.02 -4 9 C-6.31 8.34 -8.62 7.68 -11 7 C-11 3 -11 3 -9 1 C-6.8359375 0.5859375 -6.8359375 0.5859375 -4.375 0.375 C-3.55773438 0.30023438 -2.74046875 0.22546875 -1.8984375 0.1484375 C-1.27195312 0.09945312 -0.64546875 0.05046875 0 0 Z " fill="#C05E37" transform="translate(48,50)"/>
<path d="M0 0 C5.75 1.625 5.75 1.625 8 5 C8.25760279 7.69452521 8.08900053 10.28548375 8 13 C7.34 12.67 6.68 12.34 6 12 C5.59270772 9.67843403 5.25561323 7.3431213 5 5 C4.34 5 3.68 5 3 5 C3.33 5.99 3.66 6.98 4 8 C1.03 7.67 -1.94 7.34 -5 7 C-4.360625 6.21625 -3.72125 5.4325 -3.0625 4.625 C-1.01857687 2.20460719 -1.01857687 2.20460719 0 0 Z " fill="#758D89" transform="translate(44,22)"/>
<path d="M0 0 C0.144375 0.61875 0.28875 1.2375 0.4375 1.875 C0.93152225 4.03258322 0.93152225 4.03258322 2 6 C1.938125 6.78375 1.87625 7.5675 1.8125 8.375 C1.74938442 11.17651869 1.74938442 11.17651869 4 13.3125 C4.66 13.869375 5.32 14.42625 6 15 C2.44219804 14.39009109 -0.6828589 13.4216319 -4 12 C-4.8125 8.8125 -4.8125 8.8125 -5 5 C-2.5625 2.0625 -2.5625 2.0625 0 0 Z " fill="#1F2019" transform="translate(23,12)"/>
<path d="M0 0 C0.66 0 1.32 0 2 0 C1.67 1.65 1.34 3.3 1 5 C0.01 5 -0.98 5 -2 5 C-2 6.65 -2 8.3 -2 10 C-4.31 11.32 -6.62 12.64 -9 14 C-9.33 12.68 -9.66 11.36 -10 10 C-10.33 11.32 -10.66 12.64 -11 14 C-11.66 14 -12.32 14 -13 14 C-12.67 12.02 -12.34 10.04 -12 8 C-11.13375 8.165 -10.2675 8.33 -9.375 8.5 C-5.98630527 8.35598678 -5.98630527 8.35598678 -4.3359375 6.21875 C-3.28840246 4.753233 -2.27418449 3.26325341 -1.296875 1.75 C-0.86890625 1.1725 -0.4409375 0.595 0 0 Z " fill="#BC9F68" transform="translate(49,10)"/>
<path d="M0 0 C1.35544922 0.34224609 1.35544922 0.34224609 2.73828125 0.69140625 C4.50751953 1.12259766 4.50751953 1.12259766 6.3125 1.5625 C7.48425781 1.85253906 8.65601563 2.14257812 9.86328125 2.44140625 C13.01512112 3.26032433 13.01512112 3.26032433 16 2 C16 2.66 16 3.32 16 4 C14.125 5.0625 14.125 5.0625 12 6 C11.34 5.67 10.68 5.34 10 5 C10 5.66 10 6.32 10 7 C6.1936543 6.32829194 2.64793184 5.27253436 -1 4 C-0.67 2.68 -0.34 1.36 0 0 Z " fill="#3A3528" transform="translate(35,6)"/>
<path d="M0 0 C1 1 1 1 1 6 C-2.3 5.34 -5.6 4.68 -9 4 C-9.33 2.68 -9.66 1.36 -10 0 C-6.681572 -1.659214 -3.60735024 -0.57259528 0 0 Z " fill="#DCB77A" transform="translate(46,4)"/>
<path d="M0 0 C1.9375 0.25 1.9375 0.25 4 1 C4.66 1.99 5.32 2.98 6 4 C8.05003955 5.19232613 8.05003955 5.19232613 10 6 C8.35 6.33 6.7 6.66 5 7 C5 7.66 5 8.32 5 9 C3.0625 8.1875 3.0625 8.1875 1 7 C0.67 6.01 0.34 5.02 0 4 C0.33 3.67 0.66 3.34 1 3 C0.34 2.34 -0.32 1.68 -1 1 C-0.67 0.67 -0.34 0.34 0 0 Z " fill="#3A3729" transform="translate(20,28)"/>
<path d="M0 0 C2 1 2 1 3 2 C4.65 1.34 6.3 0.68 8 0 C8 0.66 8 1.32 8 2 C7.01 2.66 6.02 3.32 5 4 C4.0409375 5.0209375 4.0409375 5.0209375 3.0625 6.0625 C0.94756369 8.04925835 -0.18035258 8.59719323 -3 9 C-3 8.01 -3 7.02 -3 6 C-2.34 6 -1.68 6 -1 6 C-0.67 4.02 -0.34 2.04 0 0 Z " fill="#646654" transform="translate(39,20)"/>
<path d="M0 0 C0.66 0.33 1.32 0.66 2 1 C1.3503125 2.051875 1.3503125 2.051875 0.6875 3.125 C-1.01501086 6.02557406 -2.52448567 8.97870875 -4 12 C-4.99 12 -5.98 12 -7 12 C-7 11.01 -7 10.02 -7 9 C-6.34 9 -5.68 9 -5 9 C-5.33 7.02 -5.66 5.04 -6 3 C-4.03533587 1.93224776 -2.03144641 0.93446535 0 0 Z " fill="#1F201A" transform="translate(34,41)"/>
<path d="M0 0 C3 2 3 2 3.9375 5.875 C4.27734375 7.9296875 4.27734375 7.9296875 4 10 C2.68 11.32 1.36 12.64 0 14 C0 9.38 0 4.76 0 0 Z " fill="#1A1B16" transform="translate(33,12)"/>
<path d="M0 0 C1.6792238 0.63437344 3.35008418 1.29289322 5 2 C3 4 3 4 0 6 C-0.99 6 -1.98 6 -3 6 C-3.33 5.01 -3.66 4.02 -4 3 C-4.66 3 -5.32 3 -6 3 C-6.33 2.01 -6.66 1.02 -7 0 C-4.26965677 -1.36517162 -2.92769462 -0.74894513 0 0 Z " fill="#73866E" transform="translate(20,53)"/>
<path d="M0 0 C1.98 0.66 3.96 1.32 6 2 C6 3.32 6 4.64 6 6 C4.35 6.33 2.7 6.66 1 7 C0.67 6.34 0.34 5.68 0 5 C-0.66 5 -1.32 5 -2 5 C-1.125 1.125 -1.125 1.125 0 0 Z " fill="#3E3B2C" transform="translate(18,41)"/>
<path d="M0 0 C0.66 0 1.32 0 2 0 C2.33 2.31 2.66 4.62 3 7 C2.401875 6.814375 1.80375 6.62875 1.1875 6.4375 C-1.16408762 5.77906313 -1.16408762 5.77906313 -4 7 C-5.32 5.35 -6.64 3.7 -8 2 C-5.36 2 -2.72 2 0 2 C0 1.34 0 0.68 0 0 Z " fill="#627B78" transform="translate(47,27)"/>
<path d="M0 0 C0.99 0 1.98 0 3 0 C3 1.32 3 2.64 3 4 C3.66 4.33 4.32 4.66 5 5 C1.87139505 6.56430248 -0.55602925 6.35627284 -4 6 C-6.4375 3.5 -6.4375 3.5 -8 1 C-7.13375 1.4640625 -7.13375 1.4640625 -6.25 1.9375 C-4.15705816 2.92583364 -2.25464725 3.5168613 0 4 C0 2.68 0 1.36 0 0 Z " fill="#A97155" transform="translate(29,23)"/>
<path d="M0 0 C1.9375 0.75 1.9375 0.75 4 2 C4.75 4.125 4.75 4.125 5 6 C3.68 6.99 2.36 7.98 1 9 C-0.32 8.34 -1.64 7.68 -3 7 C-2.01 6.34 -1.02 5.68 0 5 C0.25030977 2.41619823 0.25030977 2.41619823 0 0 Z " fill="#EFC172" transform="translate(37,30)"/>
<path d="M0 0 C1.32 0 2.64 0 4 0 C3.9375 1.8125 3.9375 1.8125 3 4 C-2.77077364 7.15759312 -2.77077364 7.15759312 -6.4375 6.6875 C-6.953125 6.460625 -7.46875 6.23375 -8 6 C-7.01 5.34 -6.02 4.68 -5 4 C-4.67 3.34 -4.34 2.68 -4 2 C-2.68 2.33 -1.36 2.66 0 3 C0 2.01 0 1.02 0 0 Z " fill="#4A5B48" transform="translate(31,54)"/>
<path d="M0 0 C0.66 0.33 1.32 0.66 2 1 C0.625 3.5 0.625 3.5 -1 6 C-1.66 6 -2.32 6 -3 6 C-2.67 6.99 -2.34 7.98 -2 9 C-2.33 9.66 -2.66 10.32 -3 11 C-2.34 11 -1.68 11 -1 11 C-1.33 11.66 -1.66 12.32 -2 13 C-3.65 12.67 -5.3 12.34 -7 12 C-6.25130208 10.27473958 -5.50260417 8.54947917 -4.75390625 6.82421875 C-4.10038058 5.24288979 -3.54108198 3.62324594 -3 2 C-2.01 1.34 -1.02 0.68 0 0 Z " fill="#4A5C54" transform="translate(38,38)"/>
<path d="M0 0 C0.99 0.33 1.98 0.66 3 1 C3.33 1.99 3.66 2.98 4 4 C-0.10457614 6.98514628 -2.97745369 7.2954439 -8 7 C-8 6.67 -8 6.34 -8 6 C-6.35 6 -4.7 6 -3 6 C-3 5.34 -3 4.68 -3 4 C-2.34 3.67 -1.68 3.34 -1 3 C-1.33 2.34 -1.66 1.68 -2 1 C-1.34 0.67 -0.68 0.34 0 0 Z " fill="#E4B56A" transform="translate(33,36)"/>
<path d="M0 0 C0.33 0.66 0.66 1.32 1 2 C0.34 2 -0.32 2 -1 2 C-0.67 3.65 -0.34 5.3 0 7 C-2.375 7.625 -2.375 7.625 -5 8 C-5.66 7.34 -6.32 6.68 -7 6 C-6.34 6 -5.68 6 -5 6 C-5.33 5.01 -5.66 4.02 -6 3 C-5.01 3 -4.02 3 -3 3 C-1.31201173 1.56249809 -1.31201173 1.56249809 0 0 Z " fill="#3E3B2E" transform="translate(38,28)"/>
<path d="M0 0 C0.66 0 1.32 0 2 0 C1.64005447 2.6635969 1.28838998 4.58183452 -0.25 6.8125 C-2.58011277 8.39364795 -4.24501755 8.22337696 -7 8 C-7 7.01 -7 6.02 -7 5 C-5.35 5 -3.7 5 -2 5 C-1.34 3.35 -0.68 1.7 0 0 Z " fill="#F2C87E" transform="translate(45,11)"/>
<path d="M0 0 C0.66 0 1.32 0 2 0 C1.67 1.65 1.34 3.3 1 5 C0.34 5 -0.32 5 -1 5 C-1 5.66 -1 6.32 -1 7 C-2.65 7 -4.3 7 -6 7 C-6.33 5.68 -6.66 4.36 -7 3 C-5.02 3 -3.04 3 -1 3 C-0.67 2.01 -0.34 1.02 0 0 Z " fill="#F6C97A" transform="translate(31,35)"/>
<path d="M0 0 C-2.70879335 1.35439668 -5.00933268 1.06501451 -8 1 C-8.33 0.01 -8.66 -0.98 -9 -2 C-9.66 -2.33 -10.32 -2.66 -11 -3 C-6.21497621 -4.70893707 -4.01049079 -2.67366053 0 0 Z " fill="#875435" transform="translate(41,61)"/>
<path d="M0 0 C2.31 0.33 4.62 0.66 7 1 C6.67 1.99 6.34 2.98 6 4 C1.25 5.125 1.25 5.125 -1 4 C-0.67 2.68 -0.34 1.36 0 0 Z " fill="#5F7560" transform="translate(31,50)"/>
<path d="M0 0 C1.98 0.66 3.96 1.32 6 2 C6 3.98 6 5.96 6 8 C4.68 8.33 3.36 8.66 2 9 C2.33 6.69 2.66 4.38 3 2 C2.01 1.67 1.02 1.34 0 1 C0 0.67 0 0.34 0 0 Z " fill="#151612" transform="translate(21,41)"/>
<path d="M0 0 C1.98 0.99 1.98 0.99 4 2 C4 2.66 4 3.32 4 4 C4.99 3.34 5.98 2.68 7 2 C7.99 2.33 8.98 2.66 10 3 C7.16569547 6.2542015 5.31392226 7.5206753 1 8 C1.20625 7.236875 1.4125 6.47375 1.625 5.6875 C2.33391203 2.78114056 2.33391203 2.78114056 0 0 Z " fill="#4E5346" transform="translate(39,30)"/>
<path d="M0 0 C0.33 0.66 0.66 1.32 1 2 C-0.875 3.0625 -0.875 3.0625 -3 4 C-3.66 3.67 -4.32 3.34 -5 3 C-5 3.66 -5 4.32 -5 5 C-6.32 5 -7.64 5 -9 5 C-9 3.68 -9 2.36 -9 1 C-7.88625 1.020625 -6.7725 1.04125 -5.625 1.0625 C-2.16784079 1.26380718 -2.16784079 1.26380718 0 0 Z " fill="#2B281F" transform="translate(50,8)"/>
<path d="M0 0 C0.99 0.33 1.98 0.66 3 1 C2.34 1 1.68 1 1 1 C1 1.99 1 2.98 1 4 C0.01 4 -0.98 4 -2 4 C-2 4.99 -2 5.98 -2 7 C-2.99 7.33 -3.98 7.66 -5 8 C-4.66275164 4.88045262 -4.3790035 3.3790035 -2.125 1.125 C-1.42375 0.75375 -0.7225 0.3825 0 0 Z " fill="#5C706A" transform="translate(42,37)"/>
<path d="M0 0 C0.66 0 1.32 0 2 0 C3.60725635 3.21451269 3.05748185 6.43612536 3 10 C1 9 1 9 0.33203125 7.1875 C0.16058594 6.465625 -0.01085938 5.74375 -0.1875 5 C-0.36667969 4.278125 -0.54585937 3.55625 -0.73046875 2.8125 C-0.86388672 1.9153125 -0.86388672 1.9153125 -1 1 C-0.67 0.67 -0.34 0.34 0 0 Z " fill="#66898A" transform="translate(49,25)"/>
<path d="M0 0 C1.45823212 -0.0270043 2.91660675 -0.04639787 4.375 -0.0625 C5.18710937 -0.07410156 5.99921875 -0.08570313 6.8359375 -0.09765625 C9 0 9 0 11 1 C11 1.66 11 2.32 11 3 C8.36 3 5.72 3 3 3 C3 2.34 3 1.68 3 1 C2.01 0.67 1.02 0.34 0 0 Z " fill="#826E4A" transform="translate(39,0)"/>
<path d="M0 0 C0 0.99 0 1.98 0 3 C0.66 3.66 1.32 4.32 2 5 C1.67 5.66 1.34 6.32 1 7 C1.66 7.66 2.32 8.32 3 9 C1.0625 8.6875 1.0625 8.6875 -1 8 C-1.33 7.01 -1.66 6.02 -2 5 C-2.66 4.67 -3.32 4.34 -4 4 C-3.34 4 -2.68 4 -2 4 C-1.34 2.68 -0.68 1.36 0 0 Z " fill="#28261C" transform="translate(20,26)"/>
<path d="M0 0 C1.98 0 3.96 0 6 0 C6.33 1.32 6.66 2.64 7 4 C5.02 4 3.04 4 1 4 C0.67 2.68 0.34 1.36 0 0 Z " fill="#BEA56C" transform="translate(34,10)"/>
<path d="M0 0 C0.99 0 1.98 0 3 0 C3.33 1.98 3.66 3.96 4 6 C3.01 6.33 2.02 6.66 1 7 C0.31292445 4.50935112 0 2.62113708 0 0 Z " fill="#884D31" transform="translate(49,55)"/>
<path d="M0 0 C0.66 0 1.32 0 2 0 C2 2.64 2 5.28 2 8 C2.66 8.33 3.32 8.66 4 9 C2.35 9 0.7 9 -1 9 C-1 6.1568006 -0.58287897 3.76867509 0 1 C0 0.67 0 0.34 0 0 Z " fill="#56705D" transform="translate(24,50)"/>
<path d="M0 0 C0.33 0.99 0.66 1.98 1 3 C-1.75 3.6875 -1.75 3.6875 -5 4 C-7.375 2.5625 -7.375 2.5625 -9 1 C-4.545 0.505 -4.545 0.505 0 0 Z " fill="#945736" transform="translate(48,50)"/>
<path d="M0 0 C0 0.99 0 1.98 0 3 C-0.99 3.495 -0.99 3.495 -2 4 C-2.33 4.66 -2.66 5.32 -3 6 C-3.99 5.34 -4.98 4.68 -6 4 C-5.67 3.01 -5.34 2.02 -5 1 C-3 0 -3 0 0 0 Z " fill="#778B83" transform="translate(48,37)"/>
<path d="M0 0 C1.5625 1.8125 1.5625 1.8125 3 4 C2.67 4.99 2.34 5.98 2 7 C0.68 6.34 -0.64 5.68 -2 5 C-1.34 3.35 -0.68 1.7 0 0 Z " fill="#615A41" transform="translate(25,11)"/>
<path d="M0 0 C1.5 1.3125 1.5 1.3125 3 3 C3 3.99 3 4.98 3 6 C1.35 5.67 -0.3 5.34 -2 5 C-1.34 3.35 -0.68 1.7 0 0 Z " fill="#333023" transform="translate(28,51)"/>
<path d="M0 0 C0.66 0.33 1.32 0.66 2 1 C1.67 2.32 1.34 3.64 1 5 C-1.86724686 4.42655063 -2.8614515 4.1385485 -5 2 C-2.625 0.9375 -2.625 0.9375 0 0 Z " fill="#3A3A2D" transform="translate(23,50)"/>
<path d="M0 0 C0.99 0.99 1.98 1.98 3 3 C2.01 3.99 1.02 4.98 0 6 C-0.99 5.67 -1.98 5.34 -3 5 C-2 2 -2 2 0 0 Z " fill="#181914" transform="translate(15,47)"/>
<path d="M0 0 C1.26422764 3.79268293 0.23577236 5.29268293 -1 9 C-1.66 9 -2.32 9 -3 9 C-3.36923077 3.46153846 -3.36923077 3.46153846 -1.5 1.125 C-1.005 0.75375 -0.51 0.3825 0 0 Z " fill="#363324" transform="translate(14,44)"/>
<path d="M0 0 C0 0.66 0 1.32 0 2 C-0.99 2.66 -1.98 3.32 -3 4 C-4.01868662 4.98095748 -5.02351983 5.97702078 -6 7 C-6.33 6.01 -6.66 5.02 -7 4 C-2.25 0 -2.25 0 0 0 Z " fill="#57615A" transform="translate(47,20)"/>
<path d="M0 0 C0 1.65 0 3.3 0 5 C-1.65 4.67 -3.3 4.34 -5 4 C-4.67 3.01 -4.34 2.02 -4 1 C-2 0 -2 0 0 0 Z " fill="#191A14" transform="translate(36,27)"/>
<path d="M0 0 C0.66 0.33 1.32 0.66 2 1 C1.67 3.64 1.34 6.28 1 9 C-0.625 7.3125 -0.625 7.3125 -2 5 C-1.1875 2.25 -1.1875 2.25 0 0 Z " fill="#3A372A" transform="translate(20,14)"/>
<path d="M0 0 C2.475 0.495 2.475 0.495 5 1 C4.67 1.99 4.34 2.98 4 4 C1.9375 4.6875 1.9375 4.6875 0 5 C0 3.35 0 1.7 0 0 Z " fill="#846B42" transform="translate(47,5)"/>
</svg>
